<svg xmlns="http://www.w3.org/2000/svg" viewBox="0 0 64 64">
  <circle cx="32" cy="32" r="30" fill="white" stroke="#111" stroke-width="3"/>
  <circle cx="32" cy="32" r="20" fill="none" stroke="#111" stroke-width="2.5"/>
  <path d="M32 46c-1.6-1.4-3.3-2.8-5.1-4.3-1.9-1.5-3.7-3.1-5.3-4.8-1.9-2-3.4-4.1-4.6-6.3-1.3-2.3-1.9-4.7-1.9-7.3 0-4.7 3.2-9 8-10.6 3.8-1.2 8.2-.1 11.1 3 2.9-3.1 7.3-4.2 11.1-3 4.8 1.6 8 5.9 8 10.6 0 2.6-.6 5-1.9 7.3-1.2 2.2-2.7 4.3-4.6 6.3-1.6 1.7-3.4 3.3-5.3 4.8-1.8 1.5-3.5 2.9-5.1 4.3z" fill="#c9302c"/>
</svg>
